<svg xmlns="http://www.w3.org/2000/svg" width="14.614" height="21" viewBox="0 0 14.614 21">
  <path id="telephone" d="M47.581,16.307l-.438-.731c-.788-1.3-1.875-2.789-3.3-2.789a2.029,2.029,0,0,0-.785.161l-.765.328c-.07.029-.138.062-.21.1a1.539,1.539,0,0,1-.646.2c-.564,0-1.217-.733-1.838-2.065-.61-1.307-.571-1.992-.431-2.337a1.371,1.371,0,0,1,.9-.689c.054-.02.1-.039.149-.058l.775-.326c2.019-.844,1.268-3.795,1.022-4.762L41.8,2.506C41.626,1.821,41.152,0,39.582,0a2.406,2.406,0,0,0-.921.2c-.21.084-3.105,1.265-4.154,3.341-1.253,2.471-1.022,5.785.688,9.847s3.9,6.555,6.541,7.394A5.038,5.038,0,0,0,43.259,21h0a10.569,10.569,0,0,0,3.771-.841,1.99,1.99,0,0,0,1.208-1.2A3.391,3.391,0,0,0,47.581,16.307Zm-.694,2.21c-.04.124-.18.237-.415.335l-.013.005a9.257,9.257,0,0,1-3.2.721,3.629,3.629,0,0,1-1.093-.15c-2.227-.707-4.131-2.923-5.661-6.589s-1.787-6.573-.731-8.656c.82-1.624,3.389-2.654,3.414-2.664l.015-.006a1.036,1.036,0,0,1,.379-.094c.313,0,.6.486.846,1.437l.208.828c.449,1.762.38,2.864-.194,3.1l-.771.325-.106.041a2.722,2.722,0,0,0-1.713,1.483,4.375,4.375,0,0,0,.46,3.473C39.217,14.053,40.24,15,41.436,15A2.847,2.847,0,0,0,42.7,14.65c.049-.024.093-.046.14-.065l.766-.329a.6.6,0,0,1,.232-.049c.369,0,1.03.365,2.084,2.1l.438.731C46.9,17.931,46.946,18.335,46.887,18.517Z" transform="translate(-33.713)" fill="#494a4e"/>
</svg>
