<svg xmlns="http://www.w3.org/2000/svg" width="46" height="46.02" viewBox="0 0 46 46.02">
  <g id="digital-marketing_1_" data-name="digital-marketing (1)" transform="translate(-1 -0.98)">
    <g id="Digital_Marketing" data-name="Digital Marketing">
      <path id="Path_84338" data-name="Path 84338" d="M15.3,1H3C2.51,1,1.86.4,9,5.75Z" fill="#ea771c"/>
      <path id="Path_84339" data-name="Path 84339" d="M17,11c0-8.69.05-8.22-.12-8.66C8.94,8.29,9.47,8,9,8s0,.24-7.88-5.66C1,2.79,1,2.36,1,11a2,2,0,0,0,2,2H15A2,2,0,0,0,17,11ZM38,8.39,40.76,7,38,5.62Z" fill="#ea771c"/>
      <path id="Path_84340" data-name="Path 84340" d="M45,1H33a2,2,0,0,0-2,2v8a2,2,0,0,0,2,2H45a2,2,0,0,0,2-2V3A2,2,0,0,0,45,1ZM41.66,8.79c-3,1.48-3,1.59-3.66,1.59a2,2,0,0,1-2-2c0-2.44-.28-3.7,1-4.46s2.11,0,4.71,1.29a2,2,0,0,1-.05,3.58Z" fill="#ea771c"/>
      <circle id="Ellipse_4364" data-name="Ellipse 4364" cx="2" cy="2" r="2" transform="translate(37 37)" fill="#ea771c"/>
      <path id="Path_84341" data-name="Path 84341" d="M46.07,37a.93.93,0,0,1-.66-1.59.93.93,0,0,0,0-1.31L43.9,32.59a.91.91,0,0,0-1.31,0A.93.93,0,0,1,41,31.93a.93.93,0,0,0-.93-.93H37.93a.93.93,0,0,0-.93.93.93.93,0,0,1-1.59.66.91.91,0,0,0-1.31,0L32.59,34.1a.92.92,0,0,0,0,1.31A.94.94,0,0,1,31.93,37a.93.93,0,0,0-.93.93v2.14a.93.93,0,0,0,.93.93.93.93,0,0,1,.66,1.59.91.91,0,0,0,0,1.31l1.51,1.51a.91.91,0,0,0,1.31,0,.93.93,0,0,1,1.59.66.93.93,0,0,0,.93.93h2.14a.93.93,0,0,0,.93-.93.93.93,0,0,1,1.59-.66.91.91,0,0,0,1.31,0l1.51-1.51a.91.91,0,0,0,0-1.31A.93.93,0,0,1,46.07,41a.93.93,0,0,0,.93-.93V37.93a.93.93,0,0,0-.93-.93ZM39,43a4,4,0,1,1,4-4A4,4,0,0,1,39,43ZM7.42,31.57,3.88,35.1a3,3,0,0,0,0,4.24l2.83,2.83a3,3,0,0,0,4.24,0l3.54-3.53Zm7.77,9.19-2.82,2.83,2.82,2.82A2,2,0,0,0,18,43.59ZM8.58,29.9l7.57,7.57,12.48-5.91L14.49,17.42Zm11.94-9.27,4.9,4.9a4,4,0,0,0-4.9-4.9Zm6.69-.79c.55,0,.57-.16,2.83-2.42A1,1,0,0,0,28.63,16l-2.12,2.12a1,1,0,0,0,.7,1.72ZM24,17V14a1,1,0,0,0-2,0v3a1,1,0,0,0,2,0Zm8,5H29a1,1,0,0,0,0,2h3a1,1,0,0,0,0-2Z" fill="#ea771c"/>
    </g>
  </g>
</svg>
