<svg xmlns="http://www.w3.org/2000/svg" width="27.21" height="20.354" viewBox="0 0 27.21 20.354">
  <g id="Group_151647" data-name="Group 151647" transform="translate(-1425.204 -1990.438)">
    <path id="path465" d="M-17.111-73.1a1.6,1.6,0,0,1-.713-1.332h0a1.713,1.713,0,0,1,1.713-1.713H6.173a1.713,1.713,0,0,1,1.713,1.713h0A1.6,1.6,0,0,1,7.173-73.1L-4.018-65.637a1.714,1.714,0,0,1-1.9,0Z" transform="translate(1443.778 2067.332)" fill="none" stroke="#000" stroke-linecap="round" stroke-linejoin="round" stroke-miterlimit="10" stroke-width="1.5"/>
    <path id="path469" d="M0,0V15.426A1.715,1.715,0,0,0,1.714,17.14H24a1.715,1.715,0,0,0,1.714-1.714V0" transform="translate(1425.954 1992.902)" fill="none" stroke="#000" stroke-linecap="round" stroke-linejoin="round" stroke-miterlimit="10" stroke-width="1.5"/>
  </g>
</svg>
