<svg xmlns="http://www.w3.org/2000/svg" width="1076.66" height="521.52" viewBox="0 0 1076.66 521.52">
  <g id="Group_151226" data-name="Group 151226" transform="translate(538.125 260.965)">
    <path id="Path_65319" data-name="Path 65319" d="M0,.41H1075.84M0,43.791H1075.84M0,87.171H1075.84M0,130.552H1075.84M0,173.933H1075.84M0,217.314H1075.84M0,260.694H1075.84M0,304.074H1075.84M0,347.455H1075.84M0,390.836H1075.84M0,434.216H1075.84M0,477.6H1075.84M0,520.978H1075.84M.41.82v520.7M43.87.82v520.7M86.51.82v520.7M129.97.82v520.7M171.79.82v520.7M215.25.82v520.7M258.71.82v520.7M301.35.82v520.7M344.81.82v520.7M387.45.82v520.7M430.91.82v520.7M474.37.82v520.7M517.01.82v520.7M559.65.82v520.7M602.29.82v520.7M645.75.82v520.7M689.21.82v520.7M731.85.82v520.7M775.31.82v520.7M817.95.82v520.7M861.41.82v520.7M904.87.82v520.7M946.69.82v520.7M1076.25.82v520.7M1032.79.82v520.7M990.15.82v520.7" transform="translate(-538.125 -260.965)" fill="none" stroke="#4f50f6" stroke-width="0.82" opacity="0.1"/>
  </g>
</svg>
