<svg xmlns="http://www.w3.org/2000/svg" width="526.481" height="560.873" viewBox="0 0 526.481 560.873">
  <g id="_10410990_4471279" data-name="10410990_4471279" transform="translate(-30.848 -16.532)">
    <g id="OBJECTS" transform="translate(30.848 16.532)">
      <g id="Group_151024" data-name="Group 151024">
        <path id="Path_24344" data-name="Path 24344" d="M458.1,103.6a3.546,3.546,0,1,0-4.146,3.485v63.74H419.118v49.519h1.2V172.028h34.834V107.086A3.543,3.543,0,0,0,458.1,103.6Zm-3.546,2.345A2.345,2.345,0,1,1,456.9,103.6,2.348,2.348,0,0,1,454.553,105.947Z" transform="translate(47.263 0.271)" fill="#a6d7ff"/>
        <path id="Path_24345" data-name="Path 24345" d="M405.021,128.143a3.54,3.54,0,0,0-.6,7.03V214.7h1.2V135.173a3.54,3.54,0,0,0-.6-7.03Zm0,5.891a2.345,2.345,0,1,1,2.345-2.345A2.348,2.348,0,0,1,405.021,134.034Z" transform="translate(43.714 5.922)" fill="#a6d7ff"/>
        <path id="Path_24346" data-name="Path 24346" d="M347.518,63.018H282.576a3.546,3.546,0,1,0,0,1.2h63.742V79.835h49.517v-1.2H347.518ZM279.09,65.965a2.345,2.345,0,1,1,2.345-2.345A2.347,2.347,0,0,1,279.09,65.965Z" transform="translate(18.379 -7.773)" fill="#a6d7ff"/>
        <path id="Path_24347" data-name="Path 24347" d="M325.826,84.724a3.546,3.546,0,1,0,3.485,4.146h55.5v-1.2h-55.5A3.541,3.541,0,0,0,325.826,84.724Zm0,5.891a2.345,2.345,0,1,1,2.345-2.345A2.348,2.348,0,0,1,325.826,90.615Z" transform="translate(27.781 -2.813)" fill="#a6d7ff"/>
        <path id="Path_24348" data-name="Path 24348" d="M259.479,173.37a3.54,3.54,0,0,0,.6-7.03v-55.5h-1.2v55.5a3.54,3.54,0,0,0,.6,7.03Zm0-5.892a2.345,2.345,0,1,1-2.345,2.345A2.348,2.348,0,0,1,259.479,167.479Z" transform="translate(14.434 2.441)" fill="#a6d7ff"/>
        <path id="Path_24349" data-name="Path 24349" d="M269.531,156.5V101h-1.2v55.5a3.546,3.546,0,1,0,1.2,0Zm-.6,5.831a2.345,2.345,0,1,1,2.345-2.345A2.348,2.348,0,0,1,268.931,162.329Z" transform="translate(16.335 0.461)" fill="#a6d7ff"/>
        <path id="Path_24350" data-name="Path 24350" d="M93.378,328.779v-1.2h-55.5a3.546,3.546,0,1,0,0,1.2ZM34.4,330.524a2.345,2.345,0,1,1,2.343-2.345A2.348,2.348,0,0,1,34.4,330.524Z" transform="translate(-30.848 45.451)" fill="#a6d7ff"/>
        <path id="Path_24351" data-name="Path 24351" d="M44.235,334.085a3.546,3.546,0,1,0,3.485,4.146h55.5v-1.2h-55.5A3.543,3.543,0,0,0,44.235,334.085Zm0,5.891a2.345,2.345,0,1,1,2.345-2.345A2.347,2.347,0,0,1,44.235,339.976Z" transform="translate(-28.868 47.352)" fill="#a6d7ff"/>
        <path id="Path_24352" data-name="Path 24352" d="M281.954,436.187a3.543,3.543,0,0,0-3.483,2.944H214.729V404.3H165.21v1.2h48.317v34.834H278.47a3.541,3.541,0,1,0,3.483-4.145Zm0,5.891a2.345,2.345,0,1,1,2.346-2.346A2.347,2.347,0,0,1,281.954,442.078Z" transform="translate(-3.817 61.477)" fill="#a6d7ff"/>
        <path id="Path_24353" data-name="Path 24353" d="M248.217,393.747a3.546,3.546,0,1,0-3.486-4.148h-79.52v1.2h79.52A3.546,3.546,0,0,0,248.217,393.747Zm0-5.892a2.345,2.345,0,1,1-2.345,2.343A2.347,2.347,0,0,1,248.217,387.855Z" transform="translate(-3.817 57.928)" fill="#a6d7ff"/>
        <path id="Path_24354" data-name="Path 24354" d="M67.815,461.641H52.2v28.908a3.547,3.547,0,1,0,1.2,0V462.842H69.017V413.325h-1.2ZM55.147,494.035A2.345,2.345,0,1,1,52.8,491.69,2.348,2.348,0,0,1,55.147,494.035Z" transform="translate(-27.145 63.294)" fill="#a6d7ff"/>
        <path id="Path_24355" data-name="Path 24355" d="M78.051,470.174v-55.5h-1.2v55.5a3.546,3.546,0,1,0,1.2,0Zm-.6,5.829a2.345,2.345,0,1,1,2.345-2.345A2.347,2.347,0,0,1,77.451,476Z" transform="translate(-22.186 63.565)" fill="#a6d7ff"/>
        <path id="Path_24356" data-name="Path 24356" d="M393.558,52.47h15.615V23.562a3.544,3.544,0,1,0-1.2,0V51.269H392.358v49.519h1.2Zm12.669-32.392a2.345,2.345,0,1,1,2.346,2.343A2.35,2.35,0,0,1,406.227,20.078Z" transform="translate(41.879 -16.532)" fill="#a6d7ff"/>
        <path id="Path_24357" data-name="Path 24357" d="M381.2,40.3V95.8h1.2V40.3a3.546,3.546,0,1,0-1.2,0Zm.6-5.831a2.345,2.345,0,1,1-2.345,2.345A2.349,2.349,0,0,1,381.8,34.469Z" transform="translate(39.042 -13.165)" fill="#a6d7ff"/>
      </g>
      <path id="Path_24358" data-name="Path 24358" d="M532.509,375.735a3.118,3.118,0,0,1-3.118,3.118H34.736a3.118,3.118,0,0,1-3.118-3.118h0a3.118,3.118,0,0,1,3.118-3.117H529.392a3.117,3.117,0,0,1,3.117,3.117Z" transform="translate(-30.693 55.104)" fill="#a6d7ff" opacity="0.5"/>
      <g id="Group_151060" data-name="Group 151060" transform="translate(57.176 123.716)">
        <g id="Group_151027" data-name="Group 151027">
          <path id="Path_24359" data-name="Path 24359" d="M253.022,406.462a17.124,17.124,0,0,1-17.074,17.072H95.52a17.124,17.124,0,0,1-17.072-17.072V136.6A17.124,17.124,0,0,1,95.52,119.528H235.949A17.124,17.124,0,0,1,253.022,136.6Z" transform="translate(-78.448 -119.528)" fill="#223d94"/>
          <path id="Path_24360" data-name="Path 24360" d="M164.4,358.727a11.382,11.382,0,1,1-11.381-11.381A11.382,11.382,0,0,1,164.4,358.727Z" transform="translate(-65.735 -73.696)" fill="#fff"/>
          <g id="Group_151025" data-name="Group 151025" transform="translate(64.878 7.509)">
            <path id="Path_24361" data-name="Path 24361" d="M177.277,136.037a2.489,2.489,0,0,1-2.489,2.489H134.949a2.489,2.489,0,0,1-2.489-2.489h0a2.489,2.489,0,0,1,2.489-2.49h39.839a2.489,2.489,0,0,1,2.489,2.49Z" transform="translate(-132.46 -124.216)" fill="#fff"/>
            <path id="Path_24362" data-name="Path 24362" d="M153.747,128.031a2.253,2.253,0,1,1-2.253-2.252A2.254,2.254,0,0,1,153.747,128.031Z" transform="translate(-129.084 -125.779)" fill="#fff"/>
          </g>
          <g id="Group_151026" data-name="Group 151026" transform="translate(7.65 27.962)">
            <rect id="Rectangle_53094" data-name="Rectangle 53094" width="159.272" height="239.641" fill="#dcc5f9"/>
            <path id="Path_24363" data-name="Path 24363" d="M84.817,382.447l159.272-239.64v239.64Z" transform="translate(-84.817 -142.807)" fill="#d0b7f9" opacity="0.5"/>
          </g>
        </g>
        <g id="Group_151059" data-name="Group 151059" transform="translate(21.345 40.409)">
          <g id="Group_151050" data-name="Group 151050">
            <g id="Group_151029" data-name="Group 151029">
              <rect id="Rectangle_53095" data-name="Rectangle 53095" width="131.886" height="58.568" fill="#fff"/>
              <g id="Group_151028" data-name="Group 151028" transform="translate(29.601 14.151)" opacity="0.4">
                <path id="Path_24364" data-name="Path 24364" d="M146.394,164.95l19.726,26.036,10.811-14.271,16.613,21.925H120.861Z" transform="translate(-120.861 -164.95)" fill="#9ec7ef"/>
                <path id="Path_24365" data-name="Path 24365" d="M156.188,170.515a4.048,4.048,0,1,0,4.046-4.052A4.048,4.048,0,0,0,156.188,170.515Z" transform="translate(-113.754 -164.646)" fill="#9ec7ef"/>
              </g>
            </g>
            <g id="Group_151038" data-name="Group 151038" transform="translate(0 67.028)">
              <g id="Group_151033" data-name="Group 151033">
                <g id="Group_151032" data-name="Group 151032" transform="translate(0 11.656)">
                  <g id="Group_151030" data-name="Group 151030">
                    <rect id="Rectangle_53096" data-name="Rectangle 53096" width="59.574" height="2.659" fill="#b492f4"/>
                    <rect id="Rectangle_53097" data-name="Rectangle 53097" width="59.574" height="2.659" transform="translate(0 6.508)" fill="#b492f4"/>
                  </g>
                  <g id="Group_151031" data-name="Group 151031" transform="translate(0 13.015)">
                    <rect id="Rectangle_53098" data-name="Rectangle 53098" width="59.574" height="2.661" fill="#b492f4"/>
                    <rect id="Rectangle_53099" data-name="Rectangle 53099" width="59.574" height="2.659" transform="translate(0 6.508)" fill="#b492f4"/>
                  </g>
                </g>
                <rect id="Rectangle_53100" data-name="Rectangle 53100" width="59.574" height="5.856" fill="#fff"/>
              </g>
              <g id="Group_151037" data-name="Group 151037" transform="translate(72.312)">
                <rect id="Rectangle_53101" data-name="Rectangle 53101" width="59.574" height="5.856" fill="#fff"/>
                <g id="Group_151036" data-name="Group 151036" transform="translate(0 11.656)">
                  <g id="Group_151034" data-name="Group 151034">
                    <rect id="Rectangle_53102" data-name="Rectangle 53102" width="59.574" height="2.659" fill="#b492f4"/>
                    <rect id="Rectangle_53103" data-name="Rectangle 53103" width="59.574" height="2.659" transform="translate(0 6.508)" fill="#b492f4"/>
                  </g>
                  <g id="Group_151035" data-name="Group 151035" transform="translate(0 13.015)">
                    <rect id="Rectangle_53104" data-name="Rectangle 53104" width="59.574" height="2.661" fill="#b492f4"/>
                    <rect id="Rectangle_53105" data-name="Rectangle 53105" width="59.574" height="2.659" transform="translate(0 6.508)" fill="#b492f4"/>
                  </g>
                </g>
              </g>
            </g>
            <g id="Group_151047" data-name="Group 151047" transform="translate(0 108.675)">
              <g id="Group_151042" data-name="Group 151042">
                <g id="Group_151041" data-name="Group 151041" transform="translate(0 11.657)">
                  <g id="Group_151039" data-name="Group 151039">
                    <rect id="Rectangle_53106" data-name="Rectangle 53106" width="59.574" height="2.659" fill="#b492f4"/>
                    <rect id="Rectangle_53107" data-name="Rectangle 53107" width="59.574" height="2.659" transform="translate(0 6.508)" fill="#b492f4"/>
                  </g>
                  <g id="Group_151040" data-name="Group 151040" transform="translate(0 13.016)">
                    <rect id="Rectangle_53108" data-name="Rectangle 53108" width="59.574" height="2.658" fill="#b492f4"/>
                    <rect id="Rectangle_53109" data-name="Rectangle 53109" width="59.574" height="2.659" transform="translate(0 6.507)" fill="#b492f4"/>
                  </g>
                </g>
                <rect id="Rectangle_53110" data-name="Rectangle 53110" width="59.574" height="5.857" fill="#fff"/>
              </g>
              <g id="Group_151046" data-name="Group 151046" transform="translate(72.312)">
                <rect id="Rectangle_53111" data-name="Rectangle 53111" width="59.574" height="5.857" fill="#fff"/>
                <g id="Group_151045" data-name="Group 151045" transform="translate(0 11.657)">
                  <g id="Group_151043" data-name="Group 151043">
                    <rect id="Rectangle_53112" data-name="Rectangle 53112" width="59.574" height="2.659" fill="#b492f4"/>
                    <rect id="Rectangle_53113" data-name="Rectangle 53113" width="59.574" height="2.659" transform="translate(0 6.508)" fill="#b492f4"/>
                  </g>
                  <g id="Group_151044" data-name="Group 151044" transform="translate(0 13.016)">
                    <rect id="Rectangle_53114" data-name="Rectangle 53114" width="59.574" height="2.658" fill="#b492f4"/>
                    <rect id="Rectangle_53115" data-name="Rectangle 53115" width="59.574" height="2.659" transform="translate(0 6.507)" fill="#b492f4"/>
                  </g>
                </g>
              </g>
            </g>
            <g id="Group_151049" data-name="Group 151049" transform="translate(0 154.445)">
              <rect id="Rectangle_53116" data-name="Rectangle 53116" width="60.736" height="60.736" fill="#fff"/>
              <g id="Group_151048" data-name="Group 151048" transform="translate(8.109 20.539)" opacity="0.4">
                <path id="Path_24366" data-name="Path 24366" d="M118.2,298.846l11.767,15.526,6.448-8.512,9.91,13.077H102.969Z" transform="translate(-102.969 -298.846)" fill="#9ec7ef"/>
                <path id="Path_24367" data-name="Path 24367" d="M124.042,302.164a2.414,2.414,0,1,0,2.411-2.417A2.414,2.414,0,0,0,124.042,302.164Z" transform="translate(-98.73 -298.665)" fill="#9ec7ef"/>
              </g>
            </g>
          </g>
          <g id="Group_151058" data-name="Group 151058" transform="translate(72.312 154.445)">
            <rect id="Rectangle_53117" data-name="Rectangle 53117" width="59.574" height="5.857" fill="#fff"/>
            <g id="Group_151057" data-name="Group 151057" transform="translate(0 11.657)">
              <g id="Group_151053" data-name="Group 151053">
                <g id="Group_151051" data-name="Group 151051">
                  <rect id="Rectangle_53118" data-name="Rectangle 53118" width="59.574" height="2.659" fill="#b492f4"/>
                  <rect id="Rectangle_53119" data-name="Rectangle 53119" width="59.574" height="2.659" transform="translate(0 6.508)" fill="#b492f4"/>
                </g>
                <g id="Group_151052" data-name="Group 151052" transform="translate(0 13.015)">
                  <rect id="Rectangle_53120" data-name="Rectangle 53120" width="59.574" height="2.659" fill="#b492f4"/>
                  <rect id="Rectangle_53121" data-name="Rectangle 53121" width="59.574" height="2.659" transform="translate(0 6.508)" fill="#b492f4"/>
                </g>
              </g>
              <g id="Group_151056" data-name="Group 151056" transform="translate(0 26.031)">
                <g id="Group_151054" data-name="Group 151054">
                  <rect id="Rectangle_53122" data-name="Rectangle 53122" width="59.574" height="2.659" fill="#b492f4"/>
                  <rect id="Rectangle_53123" data-name="Rectangle 53123" width="59.574" height="2.659" transform="translate(0 6.507)" fill="#b492f4"/>
                </g>
                <g id="Group_151055" data-name="Group 151055" transform="translate(0 13.015)">
                  <rect id="Rectangle_53124" data-name="Rectangle 53124" width="59.574" height="2.659" fill="#b492f4"/>
                  <rect id="Rectangle_53125" data-name="Rectangle 53125" width="59.574" height="2.658" transform="translate(0 6.508)" fill="#b492f4"/>
                </g>
              </g>
            </g>
          </g>
        </g>
      </g>
      <g id="Group_151080" data-name="Group 151080" transform="translate(166.788 241.435)">
        <g id="Group_151063" data-name="Group 151063">
          <g id="Group_151061" data-name="Group 151061" transform="translate(18.968)">
            <path id="Path_24368" data-name="Path 24368" d="M435.383,384.981a9.521,9.521,0,0,1-9.492,9.494H194.985a9.52,9.52,0,0,1-9.492-9.494V227.024a9.52,9.52,0,0,1,9.492-9.493H425.891a9.521,9.521,0,0,1,9.492,9.493V384.981Z" transform="translate(-185.493 -217.531)" fill="#4d7ac1"/>
            <rect id="Rectangle_53126" data-name="Rectangle 53126" width="231.628" height="153.873" transform="translate(9.13 11.535)" fill="#223d94"/>
          </g>
          <g id="Group_151062" data-name="Group 151062" transform="translate(0 165.451)">
            <path id="Path_24369" data-name="Path 24369" d="M169.7,355.272v9.9a10.965,10.965,0,0,0,10.933,10.933H446.594a10.967,10.967,0,0,0,10.936-10.933v-9.9Z" transform="translate(-169.702 -355.272)" fill="#5ba1f4"/>
            <path id="Path_24370" data-name="Path 24370" d="M249,355.272v3.348a3.706,3.706,0,0,0,3.695,3.7h89.933a3.708,3.708,0,0,0,3.7-3.7v-3.348Z" transform="translate(-153.749 -355.272)" fill="#8dc6ff"/>
          </g>
        </g>
        <g id="Group_151079" data-name="Group 151079" transform="translate(37.857 21.872)">
          <g id="Group_151068" data-name="Group 151068">
            <g id="Group_151064" data-name="Group 151064">
              <rect id="Rectangle_53127" data-name="Rectangle 53127" width="48.047" height="3.604" fill="#9ec7ef"/>
              <rect id="Rectangle_53128" data-name="Rectangle 53128" width="106.505" height="3.604" transform="translate(65.664)" fill="#dcc5f9"/>
            </g>
            <g id="Group_151065" data-name="Group 151065" transform="translate(0 12.012)">
              <rect id="Rectangle_53129" data-name="Rectangle 53129" width="33.186" height="3.604" fill="#9ec7ef"/>
              <rect id="Rectangle_53130" data-name="Rectangle 53130" width="73.562" height="3.604" transform="translate(45.354)" fill="#dcc5f9"/>
            </g>
            <g id="Group_151066" data-name="Group 151066" transform="translate(0 24.024)">
              <rect id="Rectangle_53131" data-name="Rectangle 53131" width="36.314" height="3.604" fill="#9ec7ef"/>
              <rect id="Rectangle_53132" data-name="Rectangle 53132" width="80.498" height="3.604" transform="translate(49.629)" fill="#dcc5f9"/>
            </g>
            <g id="Group_151067" data-name="Group 151067" transform="translate(0 36.035)">
              <rect id="Rectangle_53133" data-name="Rectangle 53133" width="21.763" height="3.604" fill="#9ec7ef"/>
              <rect id="Rectangle_53134" data-name="Rectangle 53134" width="133.215" height="3.604" transform="translate(29.742)" fill="#dcc5f9"/>
            </g>
          </g>
          <g id="Group_151073" data-name="Group 151073" transform="translate(0 48.047)">
            <g id="Group_151069" data-name="Group 151069">
              <rect id="Rectangle_53135" data-name="Rectangle 53135" width="48.047" height="3.604" fill="#9ec7ef"/>
              <rect id="Rectangle_53136" data-name="Rectangle 53136" width="106.505" height="3.604" transform="translate(65.664)" fill="#dcc5f9"/>
            </g>
            <g id="Group_151070" data-name="Group 151070" transform="translate(0 12.012)">
              <rect id="Rectangle_53137" data-name="Rectangle 53137" width="33.186" height="3.604" fill="#9ec7ef"/>
              <rect id="Rectangle_53138" data-name="Rectangle 53138" width="73.562" height="3.604" transform="translate(45.354)" fill="#dcc5f9"/>
            </g>
            <g id="Group_151071" data-name="Group 151071" transform="translate(0 24.024)">
              <rect id="Rectangle_53139" data-name="Rectangle 53139" width="41.343" height="3.604" fill="#9ec7ef"/>
              <rect id="Rectangle_53140" data-name="Rectangle 53140" width="91.644" height="3.604" transform="translate(56.501)" fill="#dcc5f9"/>
            </g>
            <g id="Group_151072" data-name="Group 151072" transform="translate(0 36.035)">
              <rect id="Rectangle_53141" data-name="Rectangle 53141" width="21.763" height="3.604" fill="#9ec7ef"/>
              <rect id="Rectangle_53142" data-name="Rectangle 53142" width="133.215" height="3.604" transform="translate(29.742)" fill="#dcc5f9"/>
            </g>
          </g>
          <g id="Group_151078" data-name="Group 151078" transform="translate(0 96.094)">
            <g id="Group_151074" data-name="Group 151074">
              <rect id="Rectangle_53143" data-name="Rectangle 53143" width="52.18" height="3.604" fill="#9ec7ef"/>
              <rect id="Rectangle_53144" data-name="Rectangle 53144" width="115.67" height="3.604" transform="translate(71.314)" fill="#dcc5f9"/>
            </g>
            <g id="Group_151075" data-name="Group 151075" transform="translate(0 12.012)">
              <rect id="Rectangle_53145" data-name="Rectangle 53145" width="44.583" height="3.604" fill="#9ec7ef"/>
              <rect id="Rectangle_53146" data-name="Rectangle 53146" width="98.827" height="3.604" transform="translate(60.929)" fill="#dcc5f9"/>
            </g>
            <g id="Group_151076" data-name="Group 151076" transform="translate(0 24.024)">
              <rect id="Rectangle_53147" data-name="Rectangle 53147" width="39.439" height="3.604" fill="#9ec7ef"/>
              <rect id="Rectangle_53148" data-name="Rectangle 53148" width="87.425" height="3.604" transform="translate(53.899)" fill="#dcc5f9"/>
            </g>
            <g id="Group_151077" data-name="Group 151077" transform="translate(0 36.035)">
              <rect id="Rectangle_53149" data-name="Rectangle 53149" width="23.637" height="3.604" fill="#9ec7ef"/>
              <rect id="Rectangle_53150" data-name="Rectangle 53150" width="144.678" height="3.604" transform="translate(32.302)" fill="#dcc5f9"/>
            </g>
          </g>
        </g>
      </g>
      <g id="Group_151081" data-name="Group 151081" transform="translate(169.26 115.744)">
        <path id="Path_24371" data-name="Path 24371" d="M447.243,317.545V304.656h-6.976a39.31,39.31,0,0,0-6.878-16.593l4.934-4.936-9.112-9.113-4.936,4.936a39.346,39.346,0,0,0-16.594-6.88v-6.975H394.792v6.975a39.319,39.319,0,0,0-16.593,6.88l-4.934-4.936-9.115,9.113,4.934,4.936a39.316,39.316,0,0,0-6.878,16.593H355.23v12.889h6.976a39.333,39.333,0,0,0,6.879,16.593l-4.936,4.936,9.115,9.113,4.934-4.936a39.336,39.336,0,0,0,16.593,6.879v6.976h12.889V350.13a39.318,39.318,0,0,0,16.593-6.879l4.938,4.936,9.113-9.113-4.937-4.937a39.313,39.313,0,0,0,6.879-16.592h6.975Zm-46.006,20.072A26.517,26.517,0,1,1,427.753,311.1,26.517,26.517,0,0,1,401.236,337.616Z" transform="translate(-134.85 -82.271)" fill="#a6d7ff"/>
        <path id="Path_24372" data-name="Path 24372" d="M294.708,236.437V219.215h-9.321a52.562,52.562,0,0,0-9.19-22.173l6.594-6.6-12.176-12.178-6.6,6.6a52.57,52.57,0,0,0-22.174-9.193v-9.32H224.624v9.32a52.57,52.57,0,0,0-22.174,9.193l-6.594-6.6-12.179,12.178,6.6,6.6a52.548,52.548,0,0,0-9.191,22.173H171.76v17.222h9.321a52.579,52.579,0,0,0,9.191,22.173l-6.6,6.6,12.179,12.178,6.6-6.6a52.563,52.563,0,0,0,22.173,9.191V289.3h17.221v-9.321a52.551,52.551,0,0,0,22.171-9.191l6.6,6.6,12.178-12.178-6.6-6.6a52.565,52.565,0,0,0,9.191-22.173Zm-61.474,26.82a35.432,35.432,0,1,1,35.432-35.431A35.432,35.432,0,0,1,233.234,263.257Z" transform="translate(-171.76 -102.136)" fill="#a6d7ff"/>
        <path id="Path_24373" data-name="Path 24373" d="M393.631,159.18V147.8h-6.156a34.671,34.671,0,0,0-6.07-14.644l4.355-4.357-8.042-8.042-4.355,4.357a34.707,34.707,0,0,0-14.645-6.072v-6.156H347.343v6.156a34.681,34.681,0,0,0-14.644,6.072l-4.355-4.357L320.3,128.8l4.354,4.357a34.724,34.724,0,0,0-6.07,14.644H312.43V159.18h6.156a34.726,34.726,0,0,0,6.071,14.644L320.3,178.18l8.043,8.042,4.355-4.357a34.7,34.7,0,0,0,14.644,6.071v6.157h11.375v-6.157a34.667,34.667,0,0,0,14.642-6.071l4.358,4.357,8.043-8.042-4.358-4.358a34.689,34.689,0,0,0,6.071-14.642h6.156Zm-40.6,17.714a23.4,23.4,0,1,1,23.4-23.4A23.4,23.4,0,0,1,353.03,176.893Z" transform="translate(-143.46 -112.891)" fill="#a6d7ff"/>
      </g>
      <g id="Group_151096" data-name="Group 151096" transform="translate(21.088 53.972)">
        <g id="Group_151083" data-name="Group 151083" transform="translate(289.725 97.671)">
          <g id="Group_151082" data-name="Group 151082" transform="translate(0)">
            <path id="Path_24374" data-name="Path 24374" d="M365.087,218.26H289.605V142.778h75.482Zm-74.281-1.2h73.08v-73.08h-73.08Z" transform="translate(-289.605 -142.778)" fill="#efc45e"/>
          </g>
          <rect id="Rectangle_53151" data-name="Rectangle 53151" width="62.464" height="62.464" transform="translate(6.509 6.509)" fill="#efc45e"/>
          <text id="HTML" transform="translate(14.066 40.536)" fill="#223d94" font-size="13" font-family="Montserrat" font-weight="700"><tspan x="0" y="0">HTML</tspan></text>
        </g>
        <g id="Group_151085" data-name="Group 151085" transform="translate(231.849 36.403)">
          <g id="Group_151084" data-name="Group 151084">
            <path id="Path_24375" data-name="Path 24375" d="M292.984,143.333H241.422V91.771h51.562Zm-50.361-1.2h49.159V92.972H242.623Z" transform="translate(-241.422 -91.771)" fill="#7946f2"/>
          </g>
          <rect id="Rectangle_53152" data-name="Rectangle 53152" width="42.349" height="42.35" transform="translate(4.607 4.605)" fill="#7946f2"/>
          <text id="JS" transform="translate(15.683 28.869)" fill="#fff" font-size="13" font-family="Montserrat" font-weight="700"><tspan x="0" y="0">JS</tspan></text>
        </g>
        <g id="Group_151087" data-name="Group 151087" transform="translate(383.372)">
          <g id="Group_151086" data-name="Group 151086">
            <path id="Path_24376" data-name="Path 24376" d="M419.13,113.027H367.568V61.465H419.13Zm-50.361-1.2h49.159V62.666H368.769Z" transform="translate(-367.568 -61.465)" fill="#5ba1f4"/>
          </g>
          <rect id="Rectangle_53153" data-name="Rectangle 53153" width="42.349" height="42.349" transform="translate(4.607 4.607)" fill="#5ba1f4"/>
          <text id="CSS" transform="translate(10.951 29.07)" fill="#fff" font-size="12" font-family="Montserrat" font-weight="700"><tspan x="0" y="0">CSS</tspan></text>
        </g>
        <g id="Group_151089" data-name="Group 151089" transform="translate(396.949 150.237)">
          <g id="Group_151088" data-name="Group 151088" transform="translate(0)">
            <path id="Path_24377" data-name="Path 24377" d="M440.264,247.935H378.871V186.54h61.393Zm-60.192-1.2h58.991V187.741H380.072Z" transform="translate(-378.871 -186.54)" fill="#7946f2"/>
          </g>
          <rect id="Rectangle_53154" data-name="Rectangle 53154" width="50.616" height="50.618" transform="translate(5.388 5.388)" fill="#7946f2"/>
          <text id="JAVA" transform="translate(11.681 34.066)" fill="#fff" font-size="10" font-family="Montserrat" font-weight="700"><tspan x="0" y="0">JAVA</tspan></text>
        </g>
        <g id="Group_151091" data-name="Group 151091" transform="translate(16.386 300.559)">
          <g id="Group_151090" data-name="Group 151090">
            <path id="Path_24378" data-name="Path 24378" d="M123.439,373.078H62.046V311.685h61.393Zm-60.192-1.2h58.991V312.886H63.247Z" transform="translate(-62.046 -311.685)" fill="#5ba1f4"/>
          </g>
          <rect id="Rectangle_53155" data-name="Rectangle 53155" width="50.616" height="50.618" transform="translate(5.388 5.388)" fill="#5ba1f4"/>
          <text id="PHP" transform="translate(14.081 35.864)" fill="#fff" font-size="13" font-family="Montserrat" font-weight="700"><tspan x="0" y="0">PHP</tspan></text>
        </g>
        <g id="Group_151093" data-name="Group 151093" transform="translate(85.634 357.714)">
          <g id="Group_151092" data-name="Group 151092">
            <path id="Path_24379" data-name="Path 24379" d="M195.178,434.75H119.7V359.268h75.482Zm-74.281-1.2h73.08v-73.08H120.9Z" transform="translate(-119.696 -359.268)" fill="#7946f2"/>
          </g>
          <rect id="Rectangle_53156" data-name="Rectangle 53156" width="62.464" height="62.465" transform="translate(6.509 6.508)" fill="#7946f2"/>
          <text id="C_" data-name="C++" transform="translate(18.543 41.134)" fill="#fff" font-size="17" font-family="Montserrat" font-weight="700"><tspan x="0" y="0">C++</tspan></text>
        </g>
        <g id="Group_151095" data-name="Group 151095" transform="translate(0 400.905)">
          <g id="Group_151094" data-name="Group 151094">
            <path id="Path_24380" data-name="Path 24380" d="M99.966,446.788H48.4V395.225H99.966Zm-50.361-1.2H98.765V396.426H49.605Z" transform="translate(-48.404 -395.225)" fill="#efc45e"/>
          </g>
          <rect id="Rectangle_53157" data-name="Rectangle 53157" width="42.349" height="42.349" transform="translate(4.607 4.608)" fill="#efc45e"/>
          <text id="_" data-name="&lt;/&gt;" transform="translate(12.643 28.871)" fill="#223d94" font-size="13" font-family="Montserrat" font-weight="700"><tspan x="0" y="0">&lt;/&gt;</tspan></text>
        </g>
      </g>
      <g id="Group_151097" data-name="Group 151097" transform="translate(116.503 77.628)">
        <path id="Path_24381" data-name="Path 24381" d="M142.531,91.307l-10.278,3.766,10.278,3.734v3.857l-14.692-5.585V93.066l14.692-5.585Z" transform="translate(-127.839 -79.887)" fill="#a6d7ff"/>
        <path id="Path_24382" data-name="Path 24382" d="M153.543,81.159h4.291l-10.185,29.073h-4.291Z" transform="translate(-124.717 -81.159)" fill="#a6d7ff"/>
        <path id="Path_24383" data-name="Path 24383" d="M173.131,93.067v4.012l-14.69,5.585V98.807l10.278-3.734-10.278-3.766V87.48Z" transform="translate(-121.683 -79.887)" fill="#a6d7ff"/>
      </g>
      <g id="Group_151098" data-name="Group 151098" transform="translate(16.406 42.561)">
        <path id="Path_24384" data-name="Path 24384" d="M223,61.219h-4.5v-4.5h-2.4v4.5h-4.5v2.4h4.5v4.5h2.4v-4.5H223Z" transform="translate(-10.894 -51.009)" fill="#a6d7ff"/>
        <path id="Path_24385" data-name="Path 24385" d="M432.157,129.284h-4.5v-4.5h-2.4v4.5h-4.5v2.4h4.5v4.5h2.4v-4.5h4.5Z" transform="translate(31.185 -37.316)" fill="#a6d7ff"/>
        <path id="Path_24386" data-name="Path 24386" d="M462.981,220.643h-4.5v-4.5h-2.4v4.5h-4.5v2.4h4.5v4.5h2.4v-4.5h4.5Z" transform="translate(37.386 -18.937)" fill="#a6d7ff"/>
        <path id="Path_24387" data-name="Path 24387" d="M83.518,56.469h-4.5v-4.5h-2.4v4.5h-4.5v2.4h4.5v4.5h2.4v-4.5h4.5Z" transform="translate(-38.953 -51.965)" fill="#a6d7ff"/>
        <path id="Path_24388" data-name="Path 24388" d="M63.537,162.652h-4.5v-4.5h-2.4v4.5h-4.5v2.4h4.5v4.5h2.4v-4.5h4.5Z" transform="translate(-42.973 -30.603)" fill="#a6d7ff"/>
        <path id="Path_24389" data-name="Path 24389" d="M458.231,266.994h-4.5v-4.5h-2.4v4.5h-4.5v2.4h4.5v4.5h2.4v-4.5h4.5Z" transform="translate(36.43 -9.612)" fill="#a6d7ff"/>
        <path id="Path_24390" data-name="Path 24390" d="M55.917,258.52h-4.5v-4.5h-2.4v4.5h-4.5v2.4h4.5v4.5h2.4v-4.5h4.5Z" transform="translate(-44.506 -11.317)" fill="#a6d7ff"/>
        <path id="Path_24391" data-name="Path 24391" d="M262.546,404.051h-4.5v-4.5h-2.4v4.5h-4.5v2.4h4.5v4.5h2.4v-4.5h4.5Z" transform="translate(-2.937 17.961)" fill="#a6d7ff"/>
        <path id="Path_24392" data-name="Path 24392" d="M363.547,437.906h-4.5v-4.5h-2.4v4.5h-4.5v2.4h4.5v4.5h2.4v-4.5h4.5Z" transform="translate(17.382 24.771)" fill="#a6d7ff"/>
      </g>
      <g id="Group_151105" data-name="Group 151105" transform="translate(12.121 26.713)" opacity="0.5">
        <g id="Group_151099" data-name="Group 151099" transform="translate(295.259 424.554)">
          <path id="Path_24393" data-name="Path 24393" d="M312.1,442.927a25.354,25.354,0,1,1,25.353-25.354A25.383,25.383,0,0,1,312.1,442.927Zm0-49.508a24.153,24.153,0,1,0,24.152,24.152A24.181,24.181,0,0,0,312.1,393.419Z" transform="translate(-286.747 -392.219)" fill="#5ba1f4"/>
        </g>
        <g id="Group_151100" data-name="Group 151100" transform="translate(483.534 339.311)">
          <path id="Path_24394" data-name="Path 24394" d="M458.9,352.079a15.413,15.413,0,1,1,15.412-15.413A15.431,15.431,0,0,1,458.9,352.079Zm0-29.625a14.212,14.212,0,1,0,14.211,14.211A14.228,14.228,0,0,0,458.9,322.454Z" transform="translate(-443.489 -321.253)" fill="#5ba1f4"/>
        </g>
        <g id="Group_151101" data-name="Group 151101" transform="translate(441.542 432.048)">
          <path id="Path_24395" data-name="Path 24395" d="M421.249,423.9a12.719,12.719,0,1,1,12.718-12.72A12.734,12.734,0,0,1,421.249,423.9Zm0-24.237a11.518,11.518,0,1,0,11.517,11.517A11.531,11.531,0,0,0,421.249,399.659Z" transform="translate(-408.53 -398.458)" fill="#5ba1f4"/>
        </g>
        <g id="Group_151102" data-name="Group 151102" transform="translate(0 42.914)">
          <path id="Path_24396" data-name="Path 24396" d="M66.292,125.206A25.354,25.354,0,1,1,91.646,99.851,25.382,25.382,0,0,1,66.292,125.206Zm0-49.507A24.153,24.153,0,1,0,90.444,99.851,24.179,24.179,0,0,0,66.292,75.7Z" transform="translate(-40.939 -74.498)" fill="#5ba1f4"/>
        </g>
        <g id="Group_151103" data-name="Group 151103" transform="translate(123.298)">
          <path id="Path_24397" data-name="Path 24397" d="M159,69.6a15.414,15.414,0,1,1,15.412-15.414A15.43,15.43,0,0,1,159,69.6Zm0-29.626a14.212,14.212,0,1,0,14.211,14.212A14.229,14.229,0,0,0,159,39.972Z" transform="translate(-143.587 -38.771)" fill="#5ba1f4"/>
        </g>
        <g id="Group_151104" data-name="Group 151104" transform="translate(3.886 204.808)">
          <path id="Path_24398" data-name="Path 24398" d="M56,232.932A11.827,11.827,0,1,1,67.829,221.1,11.841,11.841,0,0,1,56,232.932Zm0-22.454A10.626,10.626,0,1,0,66.628,221.1,10.638,10.638,0,0,0,56,210.478Z" transform="translate(-44.174 -209.277)" fill="#5ba1f4"/>
        </g>
      </g>
    </g>
  </g>
</svg>
