<svg xmlns="http://www.w3.org/2000/svg" width="56.155" height="60" viewBox="0 0 56.155 60">
  <g id="ionic-svgrepo-com" transform="translate(-1.997 -1.923)">
    <circle id="Ellipse_3051" data-name="Ellipse 3051" cx="12.849" cy="12.849" r="12.849" transform="translate(17.251 19.047)" fill="#4e8ef7"/>
    <path id="Path_65327" data-name="Path 65327" d="M53.473,11.131a4.23,4.23,0,0,0-2.3-3.828,3.739,3.739,0,0,0-4.214.651c-11.78-9.472-28.41-7.6-38.079,4.3A31.513,31.513,0,0,0,10.22,53.136,26.783,26.783,0,0,0,48.487,54.57c11.13-10.331,12.885-28.1,4.02-40.686A4.356,4.356,0,0,0,53.473,11.131ZM30.1,60.858c-11.791,0-22.232-8.137-25.826-20.136s.484-25.1,10.087-32.415a25.716,25.716,0,0,1,31.969.4,4.422,4.422,0,0,0,.428,5.4,3.749,3.749,0,0,0,5.058.457,30.605,30.605,0,0,1,2.528,30.315c-4.6,9.8-13.982,15.987-24.243,15.979Z" transform="translate(0 0)" fill="#4e8ef7"/>
  </g>
</svg>
