<svg id="placeholder" xmlns="http://www.w3.org/2000/svg" width="14.011" height="21" viewBox="0 0 14.011 21">
  <g id="Group_39271" data-name="Group 39271">
    <path id="Path_16658" data-name="Path 16658" d="M83.005,0A7.21,7.21,0,0,0,76,7.383a7.665,7.665,0,0,0,1.046,3.882l5.561,9.444a.578.578,0,0,0,.5.291h0a.579.579,0,0,0,.5-.3l5.419-9.536a7.677,7.677,0,0,0,.988-3.782A7.21,7.21,0,0,0,83.005,0Zm5.015,10.534L83.094,19.2l-5.056-8.586a6.392,6.392,0,0,1-.878-3.234,5.852,5.852,0,1,1,11.688,0A6.4,6.4,0,0,1,88.021,10.534Z" transform="translate(-76)" fill="#494a4e"/>
    <path id="Path_16659" data-name="Path 16659" d="M169.692,90a3.692,3.692,0,1,0,3.692,3.692A3.7,3.7,0,0,0,169.692,90Zm0,6.162a2.47,2.47,0,1,1,2.466-2.47A2.471,2.471,0,0,1,169.692,96.162Z" transform="translate(-162.688 -86.309)" fill="#494a4e"/>
  </g>
</svg>
