<svg xmlns="http://www.w3.org/2000/svg" width="32.615" height="35.963" viewBox="0 0 32.615 35.963">
  <g id="software-development" transform="translate(-2.25 -1.25)">
    <path id="Path_84342" data-name="Path 84342" d="M20.5,8.835,16.854,19.785a1.254,1.254,0,1,0,2.38.793L22.882,9.628a1.254,1.254,0,1,0-2.38-.793Zm3.193,3.11,2.762,2.762-2.762,2.762a1.255,1.255,0,0,0,1.775,1.775l3.648-3.65a1.253,1.253,0,0,0,0-1.773L25.47,10.17a1.255,1.255,0,1,0-1.775,1.775ZM14.266,10.17l-3.648,3.65a1.253,1.253,0,0,0,0,1.773l3.648,3.65a1.255,1.255,0,1,0,1.775-1.775l-2.762-2.762,2.762-2.762a1.255,1.255,0,0,0-1.775-1.775Z" transform="translate(5.382 4.525)" fill="#ea771c" fill-rule="evenodd"/>
    <path id="Path_84343" data-name="Path 84343" d="M26.5,24.724l-.3.907a2.927,2.927,0,0,1-5.49.171,2.924,2.924,0,0,1-2.246-.851L14.817,21.3a2.924,2.924,0,0,1,0-4.138l3.648-3.65a2.927,2.927,0,0,1,4.99,1.848l.843-2.529A2.926,2.926,0,0,1,26.5,10.886V5.85a4.6,4.6,0,0,0-4.6-4.6H6.85a4.6,4.6,0,0,0-4.6,4.6V32.613a4.6,4.6,0,0,0,4.6,4.6H21.9a4.6,4.6,0,0,0,4.6-4.6ZM11.032,33.031h6.691a1.255,1.255,0,0,0,0-2.509H11.032a1.255,1.255,0,0,0,0,2.509ZM21.068,3.759H7.686l1.042,2.6a2.509,2.509,0,0,0,2.33,1.577H17.7a2.509,2.509,0,0,0,2.33-1.578Z" transform="translate(0 0)" fill="#ea771c" fill-rule="evenodd"/>
  </g>
</svg>
