<svg xmlns="http://www.w3.org/2000/svg" width="67.429" height="60" viewBox="0 0 67.429 60">
  <g id="reactjs-svgrepo-com" transform="translate(-2 -3.542)">
    <circle id="Ellipse_3052" data-name="Ellipse 3052" cx="6.02" cy="6.02" r="6.02" transform="translate(29.694 27.461)" fill="#00d8ff"/>
    <path id="Path_65328" data-name="Path 65328" d="M35.714,37.782a68.356,68.356,0,0,1-21.385-2.89,27.212,27.212,0,0,1-8.807-4.715A8.532,8.532,0,0,1,2,23.978C2,20,6.373,16.1,13.7,13.544A69.247,69.247,0,0,1,35.714,10.3a69.052,69.052,0,0,1,21.727,3.188,27.4,27.4,0,0,1,8.52,4.494,8.166,8.166,0,0,1,3.468,6c0,4.137-4.889,8.33-12.763,10.936a69.355,69.355,0,0,1-20.951,2.868Zm0-24.6a67.3,67.3,0,0,0-21.069,3.087C7.9,18.618,4.88,21.835,4.88,23.971c0,2.235,3.249,5.748,10.382,8.188A65.526,65.526,0,0,0,35.714,34.9a66.466,66.466,0,0,0,20.048-2.721c7.405-2.454,10.777-5.972,10.777-8.2a5.6,5.6,0,0,0-2.432-3.788,24.549,24.549,0,0,0-7.612-3.983,66.133,66.133,0,0,0-20.78-3.029Z" transform="translate(0 9.503)" fill="#00d8ff"/>
    <path id="Path_65329" data-name="Path 65329" d="M14.423,63.509a6.355,6.355,0,0,1-3.217-.79c-3.449-1.989-4.643-7.725-3.2-15.347A69.247,69.247,0,0,1,16.2,26.678h0A69.057,69.057,0,0,1,29.811,9.45,27.4,27.4,0,0,1,37.96,4.313a8.166,8.166,0,0,1,6.931,0c3.586,2.066,4.773,8.395,3.1,16.518A69.37,69.37,0,0,1,40,40.417,68.356,68.356,0,0,1,26.817,57.5a27.212,27.212,0,0,1-8.484,5.271,11.863,11.863,0,0,1-3.911.739Zm4.27-35.4A67.3,67.3,0,0,0,10.842,47.9c-1.332,7.02-.053,11.241,1.806,12.315,1.927,1.115,6.6.058,12.282-4.9A65.524,65.524,0,0,0,37.517,38.962a66.466,66.466,0,0,0,7.66-18.726c1.575-7.646.214-12.327-1.717-13.44a5.6,5.6,0,0,0-4.5.214,24.549,24.549,0,0,0-7.249,4.619,66.138,66.138,0,0,0-13,16.494Z" transform="translate(7.613 0)" fill="#00d8ff"/>
    <path id="Path_65330" data-name="Path 65330" d="M41.749,63.491c-3.263,0-7.408-1.975-11.723-5.686a69.249,69.249,0,0,1-13.84-17.428h0a69.057,69.057,0,0,1-8.125-20.4,27.4,27.4,0,0,1-.381-9.633,8.166,8.166,0,0,1,3.453-5.989c3.581-2.073,9.657.058,15.858,5.563a69.355,69.355,0,0,1,12.98,16.7,68.354,68.354,0,0,1,8.212,19.957,27.212,27.212,0,0,1,.33,9.984,8.532,8.532,0,0,1-3.6,6.153,6.237,6.237,0,0,1-3.167.78ZM18.679,38.928A67.306,67.306,0,0,0,31.9,55.614c5.416,4.66,9.712,5.662,11.559,4.576,1.927-1.12,3.347-5.691,1.883-13.086A65.531,65.531,0,0,0,37.47,28.052a66.466,66.466,0,0,0-12.39-15.99c-5.837-5.182-10.572-6.341-12.5-5.223a5.6,5.6,0,0,0-2.059,4,24.549,24.549,0,0,0,.368,8.585,66.141,66.141,0,0,0,7.793,19.506Z" transform="translate(7.636 0.049)" fill="#00d8ff"/>
  </g>
</svg>
