<svg xmlns="http://www.w3.org/2000/svg" width="64.008" height="45.465" viewBox="0 0 64.008 45.465">
  <g id="software_1_" data-name="software (1)" transform="translate(0.01 -74.16)">
    <path id="Path_84351" data-name="Path 84351" d="M52.4,100.857a4.316,4.316,0,1,1-3.052-1.265A4.306,4.306,0,0,1,52.4,100.857ZM64,103v1.818a1.216,1.216,0,0,1-.854,1.173l-1.29.418a1.192,1.192,0,0,0-.8.836,12.165,12.165,0,0,1-1.07,2.58,1.2,1.2,0,0,0-.021,1.159l.616,1.211a1.218,1.218,0,0,1-.226,1.431l-1.286,1.286a1.22,1.22,0,0,1-1.431.226l-1.211-.616a1.185,1.185,0,0,0-1.159.021,11.935,11.935,0,0,1-2.58,1.066,1.2,1.2,0,0,0-.833.808l-.421,1.29a1.21,1.21,0,0,1-1.173.85H48.436a1.214,1.214,0,0,1-1.173-.85l-.418-1.29a1.2,1.2,0,0,0-.836-.808,11.961,11.961,0,0,1-2.58-1.066,1.194,1.194,0,0,0-1.159-.021l-1.211.616a1.222,1.222,0,0,1-1.431-.226l-1.286-1.286a1.222,1.222,0,0,1-.226-1.431l.616-1.211a1.185,1.185,0,0,0-.021-1.159,11.936,11.936,0,0,1-1.066-2.58,1.207,1.207,0,0,0-.808-.836l-1.29-.418a1.214,1.214,0,0,1-.85-1.173V103a1.209,1.209,0,0,1,.85-1.173l1.294-.421a1.2,1.2,0,0,0,.8-.833,12.154,12.154,0,0,1,1.066-2.58,1.185,1.185,0,0,0,.021-1.159l-.616-1.211a1.22,1.22,0,0,1,.226-1.431l1.286-1.286a1.216,1.216,0,0,1,1.431-.226l1.211.616a1.2,1.2,0,0,0,1.159-.021,12.138,12.138,0,0,1,2.58-1.07,1.2,1.2,0,0,0,.836-.8l.418-1.29a1.217,1.217,0,0,1,1.173-.854h1.818a1.213,1.213,0,0,1,1.173.854l.421,1.29a1.181,1.181,0,0,0,.833.8,12.165,12.165,0,0,1,2.58,1.07,1.2,1.2,0,0,0,1.159.021l1.211-.616a1.216,1.216,0,0,1,1.431.226l1.286,1.286a1.214,1.214,0,0,1,.226,1.431l-.616,1.211a1.2,1.2,0,0,0,.021,1.159,12.137,12.137,0,0,1,1.07,2.58,1.183,1.183,0,0,0,.8.833l1.29.421A1.213,1.213,0,0,1,64,103Zm-8.274.908a6.377,6.377,0,1,0-1.868,4.514,6.356,6.356,0,0,0,1.868-4.514Zm-20.252,13.65H30.96l-1.375-3.834H19.744l-1.371,3.834H13.861a1.033,1.033,0,1,0,0,2.066H35.47a1.033,1.033,0,1,0,0-2.066Zm-2.8-15.125H-.01V77.392A3.242,3.242,0,0,1,3.225,74.16H46.11a3.242,3.242,0,0,1,3.235,3.232v9.8h-.91A3.281,3.281,0,0,0,45.3,89.473l-.288.875a14.12,14.12,0,0,0-2.194.911l-.823-.419a3.282,3.282,0,0,0-3.83.606l-1.286,1.286a3.283,3.283,0,0,0-.606,3.83l.418.823a14.477,14.477,0,0,0-.908,2.194l-.879.284a3.281,3.281,0,0,0-2.23,2.57ZM12.987,88.812l6.839-3.82a1.03,1.03,0,0,0-1-1.8L10.386,87.9a1.064,1.064,0,0,0-.411.408,1.03,1.03,0,0,0,.4,1.4l8.452,4.72a1.03,1.03,0,1,0,1-1.8Zm13.675-8.7a1.032,1.032,0,0,0-1.236.776L21.9,96.279a1.03,1.03,0,1,0,2.009.456l3.525-15.386A1.032,1.032,0,0,0,26.662,80.113Zm3.845,14.32,8.452-4.72a1.03,1.03,0,0,0,.4-1.4,1.056,1.056,0,0,0-.411-.408l-8.441-4.713a1.03,1.03,0,1,0-1,1.8l6.839,3.82-6.839,3.82a1.03,1.03,0,0,0,1,1.8Zm4.4,13.522a3.278,3.278,0,0,1-2.279-3.137V104.5H-.01v3.927a3.245,3.245,0,0,0,3.235,3.232H36.1a3.616,3.616,0,0,1,.174-.4l.418-.823a14.89,14.89,0,0,1-.911-2.194Z" fill="#ea771c"/>
  </g>
</svg>
