<svg xmlns="http://www.w3.org/2000/svg" width="60.416" height="54.963" viewBox="0 0 60.416 54.963">
  <g id="ux-design" transform="translate(0 -77)">
    <path id="Path_84346" data-name="Path 84346" d="M628.425,444.5a1.573,1.573,0,0,1-1.487-2.479l6.835-11.616a.7.7,0,0,1,1.2,0l6.835,11.616c.921,1.558-.567,2.9-2.231,2.373l-5.206-1.629C634.02,442.761,629.345,444.5,628.425,444.5Zm5.95-15.511c-3.966,0-3.966-5.985,0-5.985C638.305,423,638.305,428.985,634.374,428.985Z" transform="translate(-604.449 -333.747)" fill="#ea771c" fill-rule="evenodd"/>
    <path id="Path_84347" data-name="Path 84347" d="M424.953,470.833h-3.931a1.417,1.417,0,0,1,0-2.833h10.447a1.361,1.361,0,0,1,1.417,1.346,1.433,1.433,0,0,1-1.169,1.664,12.438,12.438,0,0,0-10.235,10.66,1.418,1.418,0,0,1-1.417,1.24,1.4,1.4,0,0,1-1.381-1.594A15.283,15.283,0,0,1,424.953,470.833Zm9.7-1.487A1.352,1.352,0,0,1,436.037,468h11.085a1.417,1.417,0,0,1,0,2.833h-4.568a15.2,15.2,0,0,1,6.3,10.483,1.424,1.424,0,0,1-1.417,1.594,1.445,1.445,0,0,1-1.417-1.24,12.438,12.438,0,0,0-10.235-10.66,1.428,1.428,0,0,1-1.062-.885A1.5,1.5,0,0,1,434.656,469.346Z" transform="translate(-403.846 -377.153)" fill="#ea771c" fill-rule="evenodd"/>
    <path id="Path_84348" data-name="Path 84348" d="M339.7,428.985c-3.931,0-3.931-5.985,0-5.985S343.629,428.985,339.7,428.985Zm30.669,0c-3.931,0-3.931-5.985,0-5.985C374.333,423,374.333,428.985,370.367,428.985ZM342.708,443.4c-5.418,0-4.781.637-4.781-4.745a1.27,1.27,0,0,1,1.275-1.275c5.383,0,4.745-.637,4.745,4.745A1.262,1.262,0,0,1,342.708,443.4Zm27.552,0c-5.383,0-4.745.637-4.745-4.745a1.27,1.27,0,0,1,1.275-1.275c5.383,0,4.745-.637,4.745,4.745A1.27,1.27,0,0,1,370.261,443.4Z" transform="translate(-324.824 -333.747)" fill="#ea771c" fill-rule="evenodd"/>
    <path id="Path_84349" data-name="Path 84349" d="M44.091,131.963H16.361a.686.686,0,0,1-.673-.885c1.381-5.454,10.128-4.427,11.58-8.074H4.568A4.549,4.549,0,0,1,0,118.47v-36.9A4.58,4.58,0,0,1,4.568,77H55.883a4.549,4.549,0,0,1,4.533,4.568v36.9A4.519,4.519,0,0,1,55.883,123h-22.7c1.452,3.648,10.164,2.621,11.58,8.074A.7.7,0,0,1,44.091,131.963Zm7.366-11.155H48.588a.709.709,0,0,1,0-1.417h2.869A.709.709,0,0,1,51.457,120.807Zm-33.643,0H14.98a.709.709,0,0,1,0-1.417h2.833A.708.708,0,1,1,17.813,120.807Zm-5.631,0H9.314a.709.709,0,0,1,0-1.417h2.869A.709.709,0,0,1,12.182,120.807Zm41.647-3.4H6.622a.689.689,0,0,1-.708-.708V83.3a.689.689,0,0,1,.708-.708H53.829a.71.71,0,0,1,.708.708v33.4A.71.71,0,0,1,53.829,117.407Z" fill="#ea771c" fill-rule="evenodd"/>
  </g>
</svg>
