<svg xmlns="http://www.w3.org/2000/svg" width="49.027" height="52.076" viewBox="0 0 49.027 52.076">
  <g id="graphic-design" transform="translate(-14.982 0)">
    <path id="Path_84344" data-name="Path 84344" d="M47.56,139.617a8.786,8.786,0,0,1-2.509,5.149,9.142,9.142,0,0,1-7.147,2.411,5.855,5.855,0,0,0-3.258.571,3.559,3.559,0,0,1-4.86-.163,3.582,3.582,0,0,1-.555-4.315l.569-.9a6.939,6.939,0,0,0,.394-2.9,9.148,9.148,0,0,1,2.411-7.147,8.738,8.738,0,0,1,5.161-2.514A8.323,8.323,0,0,1,39.5,126.2H19.057a4.078,4.078,0,0,0-4.074,4.072v20.2H57.478V130.412l-5.164,6.328A8.322,8.322,0,0,1,47.56,139.617Zm-32.577,15.2a4.078,4.078,0,0,0,4.074,4.071H30.633v3.493H28.067a1.526,1.526,0,1,0,0,3.051H44.393a1.526,1.526,0,1,0,0-3.051H41.827v-3.493H53.4a4.078,4.078,0,0,0,4.074-4.071v-1.3H14.983v1.3Z" transform="translate(0 -113.362)" fill="#ea771c"/>
    <path id="Path_84345" data-name="Path 84345" d="M180.754,31.31h0a.509.509,0,1,0,.722.716c.031-.03,1.572-1.454,5.367-1.3A6.25,6.25,0,0,0,191.7,29.21a5.75,5.75,0,1,0-8.132-8.132,6.251,6.251,0,0,0-1.519,4.866c.153,3.816-1.287,5.352-1.3,5.364h0ZM196.2,23.118a5.258,5.258,0,0,0,2.559-1.7l1.949-2.389-6.944-6.944-2.379,1.943a5.251,5.251,0,0,0-1.71,2.557,8.8,8.8,0,0,1,6.525,6.538ZM211.868.916a3.109,3.109,0,0,0-4.177-.21L196.14,10.14l6.508,6.508,9.43-11.556a3.109,3.109,0,0,0-.211-4.176Z" transform="translate(-148.773)" fill="#ea771c"/>
  </g>
</svg>
