<svg xmlns="http://www.w3.org/2000/svg" width="55.648" height="55.648" viewBox="0 0 55.648 55.648">
  <g id="programmer" transform="translate(-1 -1)">
    <path id="Path_84350" data-name="Path 84350" d="M1,41.927a6,6,0,0,0,5.993,5.993H50.656a6,6,0,0,0,5.993-5.993V39.19H1Zm49.1.537a1.091,1.091,0,1,1-1.091,1.091A1.093,1.093,0,0,1,50.1,42.464Zm-5.456,0h1.091a1.091,1.091,0,0,1,0,2.182H44.646a1.091,1.091,0,1,1,0-2.182Zm-5.456,0h1.091a1.091,1.091,0,1,1,0,2.182H39.19a1.091,1.091,0,0,1,0-2.182ZM50.656,1H6.993A6,6,0,0,0,1,6.993V37.008H56.648V6.993A6,6,0,0,0,50.656,1ZM12.683,23.143a1.091,1.091,0,1,1-1.543,1.543L6.775,20.321a1.091,1.091,0,0,1,0-1.543l4.365-4.365a1.091,1.091,0,0,1,1.543,1.543L9.09,19.549Zm6.834-7.693-2.182,8.729a1.091,1.091,0,1,1-2.117-.529L17.4,14.92a1.091,1.091,0,1,1,2.117.529Zm2.534,9.236a1.091,1.091,0,0,1,0-1.543l3.593-3.593-3.593-3.593a1.091,1.091,0,1,1,1.543-1.543l4.365,4.365a1.091,1.091,0,0,1,0,1.543l-4.365,4.365A1.091,1.091,0,0,1,22.051,24.686ZM50.1,33.734H28.279a1.091,1.091,0,1,1,0-2.182H29.37V28.279a1.091,1.091,0,0,1,2.182,0v3.273h2.182V25.005a1.091,1.091,0,1,1,2.182,0v6.547H38.1V27.188a1.091,1.091,0,1,1,2.182,0v4.365h2.182V20.641a1.091,1.091,0,1,1,2.182,0V31.552h2.182V22.823a1.091,1.091,0,0,1,2.182,0v8.729H50.1a1.091,1.091,0,1,1,0,2.182ZM29.37,11.911a1.091,1.091,0,0,1,1.091-1.091H43.555a1.091,1.091,0,1,1,0,2.182H30.461A1.091,1.091,0,0,1,29.37,11.911ZM50.1,8.638H30.461a1.091,1.091,0,1,1,0-2.182H50.1a1.091,1.091,0,1,1,0,2.182ZM35.371,52.284H34.28V51.193A1.091,1.091,0,0,0,33.189,50.1H24.46a1.091,1.091,0,0,0-1.091,1.091v1.091H22.277a4.365,4.365,0,0,0-4.365,4.365H39.736A4.365,4.365,0,0,0,35.371,52.284Z" fill="#ea771c"/>
  </g>
</svg>
